SplineFontDB: 3.2
FontName: AethodicSans
FullName: Aethodic Sans
FamilyName: Aethodic
Weight: Medium
Copyright: Copyright (C) from 2017 by Miles B Huff per CC BY-SA v4.0
Version: 001.000
DefaultBaseFilename: Aethodic_Sans
ItalicAngle: 0
UnderlinePosition: -500
UnderlineWidth: 100
Ascent: 500
Descent: 500
InvalidEm: 0
sfntRevision: 0x00010000
LayerCount: 2
Layer: 0 1 "Back" 1
Layer: 1 1 "Fore" 0
XUID: [1021 268 700552067 12643098]
FSType: 0
OS2Version: 4
OS2_WeightWidthSlopeOnly: 0
OS2_UseTypoMetrics: 1
CreationTime: 1508140712
ModificationTime: 1659553329
PfmFamily: 33
TTFWeight: 500
TTFWidth: 5
LineGap: 100
VLineGap: 0
Panose: 2 0 6 3 0 0 0 0 0 0
OS2TypoAscent: 500
OS2TypoAOffset: 0
OS2TypoDescent: -500
OS2TypoDOffset: 0
OS2TypoLinegap: 100
OS2WinAscent: 550
OS2WinAOffset: 0
OS2WinDescent: 550
OS2WinDOffset: 0
HheadAscent: 550
HheadAOffset: 0
HheadDescent: -550
HheadDOffset: 0
OS2SubXSize: 650
OS2SubYSize: 500
OS2SubXOff: 0
OS2SubYOff: -500
OS2SupXSize: 650
OS2SupYSize: 500
OS2SupXOff: 0
OS2SupYOff: 500
OS2StrikeYSize: 100
OS2StrikeYPos: 0
OS2FamilyClass: 2048
OS2Vendor: 'PfEd'
OS2CodePages: 00000001.00000000
OS2UnicodeRanges: 8000007f.00000010.00000000.00000000
Lookup: 260 0 0 "'mark' Mark Positioning in Latin lookup 0" { "'mark' Mark Positioning in Latin lookup 0 subtable"  } ['mark' ('DFLT' <'dflt' > 'latn' <'dflt' > ) ]
MarkAttachClasses: 1
DEI: 91125
TtTable: prep
PUSHW_1
 511
SCANCTRL
PUSHB_1
 1
SCANTYPE
SVTCA[y-axis]
MPPEM
PUSHB_1
 8
LT
IF
PUSHB_2
 1
 1
INSTCTRL
EIF
PUSHB_2
 70
 6
CALL
IF
POP
PUSHB_1
 16
EIF
MPPEM
PUSHB_1
 20
GT
IF
POP
PUSHB_1
 128
EIF
SCVTCI
PUSHB_1
 6
CALL
NOT
IF
EIF
PUSHB_1
 20
CALL
EndTTInstrs
TtTable: fpgm
PUSHB_1
 0
FDEF
PUSHB_1
 0
SZP0
MPPEM
PUSHB_1
 42
LT
IF
PUSHB_1
 74
SROUND
EIF
PUSHB_1
 0
SWAP
MIAP[rnd]
RTG
PUSHB_1
 6
CALL
IF
RTDG
EIF
MPPEM
PUSHB_1
 42
LT
IF
RDTG
EIF
DUP
MDRP[rp0,rnd,grey]
PUSHB_1
 1
SZP0
MDAP[no-rnd]
RTG
ENDF
PUSHB_1
 1
FDEF
DUP
MDRP[rp0,min,white]
PUSHB_1
 12
CALL
ENDF
PUSHB_1
 2
FDEF
MPPEM
GT
IF
RCVT
SWAP
EIF

StartChar: .notdef
Encoding: 65536 -1 0
Width: 364
Flags: W
HStem: 0 33<66 265> 467 33<66 265>
VStem: 33 33<33 467> 265 33<33 467>
LayerCount: 2
Fore
SplineSet
33 0 m 1,0,-1
 33 500 l 1,1,-1
 298 500 l 1,2,-1
 298 0 l 1,3,-1
 33 0 l 1,0,-1
66 33 m 1,4,-1
 265 33 l 1,5,-1
 265 467 l 1,6,-1
 66 467 l 1,7,-1
 66 33 l 1,4,-1
EndSplineSet
Validated: 1
EndChar

StartChar: quotedbl
Encoding: 34 34 4
Width: 200
GlyphClass: 2
Flags: W
HStem: -50 100<64.9547 135.045>
VStem: 50 100<-35.0453 35.0453>
LayerCount: 2
Fore
SplineSet
100 50 m 128,-1,1
 121 50 121 50 135.5 35.5 c 128,-1,2
 150 21 150 21 150 0 c 128,-1,3
 150 -21 150 -21 135.5 -35.5 c 128,-1,4
 121 -50 121 -50 100 -50 c 128,-1,5
 79 -50 79 -50 64.5 -35.5 c 128,-1,6
 50 -21 50 -21 50 0 c 128,-1,7
 50 21 50 21 64.5 35.5 c 128,-1,0
 79 50 79 50 100 50 c 128,-1,1
EndSplineSet
Validated: 1
EndChar

StartChar: dollar
Encoding: 36 36 5
Width: 700
GlyphClass: 2
Flags: W
HStem: -238 100<337.281 486.701> 138 100<387.899 486.701> 405 20G<214.5 235 444 463>
VStem: 174 100<-410.045 -194 -74.8202 22.4755 264 410.045> 550 100<-73.8313 73.8313>
LayerCount: 2
Fore
SplineSet
550 0 m 128,-1,1
 550 57 550 57 509.5 97.5 c 128,-1,2
 469 138 469 138 411 138 c 0,3,4
 354 138 354 138 314 97.5 c 128,-1,5
 274 57 274 57 274 0 c 128,-1,6
 274 -57 274 -57 314 -97.5 c 128,-1,7
 354 -138 354 -138 411 -138 c 0,8,9
 469 -138 469 -138 509.5 -97.5 c 128,-1,0
 550 -57 550 -57 550 0 c 128,-1,1
453 425 m 0,10,11
 473 425 473 425 488 410 c 128,-1,12
 503 395 503 395 503 375 c 0,13,14
 503 353 503 353 489 339 c 2,15,-1
 387 237 l 1,16,17
 395 238 395 238 411 238 c 0,18,19
 510 238 510 238 580 168.5 c 128,-1,20
 650 99 650 99 650 0 c 128,-1,21
 650 -99 650 -99 580 -168.5 c 128,-1,22
 510 -238 510 -238 411 -238 c 0,23,24
 338 -238 338 -238 274 -194 c 1,25,-1
 274 -375 l 2,26,27
 274 -395 274 -395 259.5 -410 c 128,-1,28
 245 -425 245 -425 225 -425 c 0,29,30
 204 -425 204 -425 189 -410.5 c 128,-1,31
 174 -396 174 -396 174 -375 c 2,32,-1
 174 24 l 1,33,-1
 135 -15 l 2,34,35
 120 -30 120 -30 100 -30 c 128,-1,36
 80 -30 80 -30 65 -15 c 128,-1,37
 50 0 50 0 50 20 c 128,-1,38
 50 40 50 40 65 55 c 2,39,-1
 174 164 l 1,40,-1
 174 375 l 2,41,42
 174 396 174 396 189 410.5 c 128,-1,43
 204 425 204 425 225 425 c 0,44,45
 245 425 245 425 259.5 410 c 128,-1,46
 274 395 274 395 274 375 c 2,47,-1
 274 264 l 1,48,-1
 419 409 l 2,49,50
 435 425 435 425 453 425 c 0,10,11
EndSplineSet
Validated: 16385
EndChar

StartChar: underscore
Encoding: 95 95 46
Width: 700
GlyphClass: 2
Flags: W
HStem: -550 100<64.9547 635.045>
LayerCount: 2
Fore
SplineSet
600 -450 m 2,0,1
 621 -450 621 -450 635.5 -464.5 c 128,-1,2
 650 -479 650 -479 650 -500 c 128,-1,3
 650 -521 650 -521 635.5 -535.5 c 128,-1,4
 621 -550 621 -550 600 -550 c 2,5,-1
 100 -550 l 2,6,7
 79 -550 79 -550 64.5 -535.5 c 128,-1,8
 50 -521 50 -521 50 -500 c 128,-1,9
 50 -479 50 -479 64.5 -464.5 c 128,-1,10
 79 -450 79 -450 100 -450 c 2,11,-1
 600 -450 l 2,0,1
EndSplineSet
Validated: 1
EndChar

StartChar: a
Encoding: 97 97 48
Width: 700
GlyphClass: 2
Flags: W
HStem: -300 100<258.611 441.389> 280 20G<89.5 110.5 589.5 610.5> 280 20G<89.5 110.5 589.5 610.5>
VStem: 50 100<-91.3818 285.045> 550 100<-91.3818 285.045>
AnchorPoint: "Anchor-1" 350 -500 basechar 0
AnchorPoint: "Anchor-0" 350 500 basechar 0
LayerCount: 2
Fore
SplineSet
150 250 m 2,0,1
 150 0 l 2,2,3
 150 -82 150 -82 209 -141 c 128,-1,4
 268 -200 268 -200 350 -200 c 128,-1,5
 432 -200 432 -200 491 -141 c 128,-1,6
 550 -82 550 -82 550 0 c 2,7,-1
 550 250 l 2,8,9
 550 271 550 271 564.5 285.5 c 128,-1,10
 579 300 579 300 600 300 c 128,-1,11
 621 300 621 300 635.5 285.5 c 128,-1,12
 650 271 650 271 650 250 c 2,13,-1
 650 0 l 2,14,15
 650 -124 650 -124 562 -212 c 128,-1,16
 474 -300 474 -300 350 -300 c 128,-1,17
 226 -300 226 -300 138 -212 c 128,-1,18
 50 -124 50 -124 50 0 c 2,19,-1
 50 250 l 2,20,21
 50 271 50 271 64.5 285.5 c 128,-1,22
 79 300 79 300 100 300 c 128,-1,23
 121 300 121 300 135.5 285.5 c 128,-1,24
 150 271 150 271 150 250 c 2,0,1
EndSplineSet
Validated: 1
EndChar

StartChar: c
Encoding: 99 99 50
Width: 626
GlyphClass: 2
Flags: W
HStem: -425 100<427.182 667.15> 325 100<-34.5298 197.919>
VStem: 264 100<-261.16 259.842>
LayerCount: 2
Fore
SplineSet
485 -424 m 0,0,1
 391 -418 391 -418 327.5 -349.5 c 128,-1,2
 264 -281 264 -281 264 -187 c 2,3,-1
 264 187 l 2,4,5
 264 244 264 244 223 284.5 c 128,-1,6
 182 325 182 325 125 325 c 2,7,-1
 1 325 l 2,8,9
 -20 325 -20 325 -35 339.5 c 128,-1,10
 -50 354 -50 354 -50 375 c 128,-1,11
 -50 396 -50 396 -35 410.5 c 128,-1,12
 -20 425 -20 425 1 425 c 2,13,-1
 125 425 l 2,14,15
 224 425 224 425 294 355.5 c 128,-1,16
 364 286 364 286 364 187 c 2,17,-1
 364 -187 l 2,18,19
 364 -243 364 -243 403.5 -284 c 128,-1,20
 443 -325 443 -325 501 -325 c 2,21,-1
 627 -325 l 2,22,23
 647 -325 647 -325 661.5 -340 c 128,-1,24
 676 -355 676 -355 676 -375 c 128,-1,25
 676 -395 676 -395 661.5 -410 c 128,-1,26
 647 -425 647 -425 627 -425 c 2,27,-1
 501 -425 l 2,28,29
 498 -425 498 -425 493 -424.5 c 128,-1,30
 488 -424 488 -424 485 -424 c 0,0,1
EndSplineSet
Validated: 16385
EndChar

StartChar: e
Encoding: 101 101 52
Width: 700
GlyphClass: 2
Flags: W
HStem: -300 100<65.4702 502.179> -50 100<198.81 502.179> 200 100<198.81 641.15>
VStem: 50 100<86.8966 163.103> 550 100<-163.103 -86.8966>
CounterMasks: 1 e0
AnchorPoint: "Anchor-1" 350 500 basechar 0
AnchorPoint: "Anchor-0" 350 -500 basechar 0
LayerCount: 2
Fore
SplineSet
601 300 m 2,0,1
 621 300 621 300 635.5 285 c 128,-1,2
 650 270 650 270 650 250 c 128,-1,3
 650 230 650 230 635.5 215 c 128,-1,4
 621 200 621 200 601 200 c 2,5,-1
 351 200 l 2,6,7
 257 200 257 200 203.5 181 c 128,-1,8
 150 162 150 162 150 125 c 128,-1,9
 150 88 150 88 203.5 69 c 128,-1,10
 257 50 257 50 351 50 c 0,11,12
 650 50 650 50 650 -125 c 128,-1,13
 650 -300 650 -300 351 -300 c 2,14,-1
 101 -300 l 2,15,16
 80 -300 80 -300 65 -285.5 c 128,-1,17
 50 -271 50 -271 50 -250 c 128,-1,18
 50 -229 50 -229 65 -214.5 c 128,-1,19
 80 -200 80 -200 101 -200 c 2,20,-1
 351 -200 l 2,21,22
 444 -200 444 -200 497 -181 c 128,-1,23
 550 -162 550 -162 550 -125 c 128,-1,24
 550 -88 550 -88 497 -69 c 128,-1,25
 444 -50 444 -50 351 -50 c 0,26,27
 50 -50 50 -50 50 125 c 128,-1,28
 50 300 50 300 351 300 c 2,29,-1
 601 300 l 2,0,1
EndSplineSet
Validated: 16385
EndChar

StartChar: f
Encoding: 102 102 53
Width: 700
GlyphClass: 2
Flags: W
HStem: -300 100<258.873 442.258> 200 100<259.187 442.258> 450 100<-253.15 -13.1821>
VStem: 50 100<-91.3818 92.0585 223 386.16> 550 100<-91.7202 91.7202>
LayerCount: 2
Fore
SplineSet
-71 549 m 0,0,1
 23 543 23 543 86.5 474.5 c 128,-1,2
 150 406 150 406 150 312 c 2,3,-1
 150 223 l 1,4,5
 237 300 237 300 351 300 c 0,6,7
 475 300 475 300 562.5 212 c 128,-1,8
 650 124 650 124 650 0 c 128,-1,9
 650 -124 650 -124 562.5 -212 c 128,-1,10
 475 -300 475 -300 351 -300 c 0,11,12
 226 -300 226 -300 138 -212 c 128,-1,13
 50 -124 50 -124 50 0 c 2,14,-1
 50 312 l 2,15,16
 50 368 50 368 10.5 409 c 128,-1,17
 -29 450 -29 450 -87 450 c 2,18,-1
 -213 450 l 2,19,20
 -233 450 -233 450 -247.5 465 c 128,-1,21
 -262 480 -262 480 -262 500 c 128,-1,22
 -262 520 -262 520 -247.5 535 c 128,-1,23
 -233 550 -233 550 -213 550 c 2,24,-1
 -87 550 l 2,25,26
 -84 550 -84 550 -79 549.5 c 128,-1,27
 -74 549 -74 549 -71 549 c 0,0,1
150 0 m 128,-1,29
 150 -83 150 -83 209 -141.5 c 128,-1,30
 268 -200 268 -200 351 -200 c 0,31,32
 433 -200 433 -200 491.5 -141.5 c 128,-1,33
 550 -83 550 -83 550 0 c 128,-1,34
 550 83 550 83 491.5 141.5 c 128,-1,35
 433 200 433 200 351 200 c 0,36,37
 268 200 268 200 209 141.5 c 128,-1,28
 150 83 150 83 150 0 c 128,-1,29
EndSplineSet
Validated: 16385
EndChar

StartChar: h
Encoding: 104 104 55
Width: 500
GlyphClass: 2
Flags: W
HStem: 200 100<-141.15 239.218>
VStem: 350 100<-535.045 90.9238>
LayerCount: 2
Fore
SplineSet
165 300 m 1,0,1
 284 294 284 294 367 206 c 128,-1,2
 450 118 450 118 450 0 c 2,3,-1
 450 -500 l 2,4,5
 450 -521 450 -521 435 -535.5 c 128,-1,6
 420 -550 420 -550 399 -550 c 0,7,8
 379 -550 379 -550 364.5 -535 c 128,-1,9
 350 -520 350 -520 350 -500 c 2,10,-1
 350 0 l 2,11,12
 350 78 350 78 296.5 135.5 c 128,-1,13
 243 193 243 193 164 199 c 0,14,15
 162 199 162 199 157 199.5 c 128,-1,16
 152 200 152 200 149 200 c 2,17,-1
 -101 200 l 2,18,19
 -121 200 -121 200 -135.5 215 c 128,-1,20
 -150 230 -150 230 -150 250 c 128,-1,21
 -150 270 -150 270 -135.5 285 c 128,-1,22
 -121 300 -121 300 -101 300 c 2,23,-1
 165 300 l 1,0,1
EndSplineSet
Validated: 1
EndChar

StartChar: i
Encoding: 105 105 56
Width: 700
GlyphClass: 2
Flags: W
HStem: -300 100<198.315 635.045> -50 100<192.037 633.045> 200 100<198.315 635.045>
VStem: 50 100<-163.103 -83.3108 83.3477 163.103>
CounterMasks: 1 e0
AnchorPoint: "Anchor-1" 350 500 basechar 0
AnchorPoint: "Anchor-0" 350 -500 basechar 0
LayerCount: 2
Fore
SplineSet
117 0 m 1,0,1
 50 48 50 48 50 125 c 0,2,3
 50 300 50 300 350 300 c 2,4,-1
 600 300 l 2,5,6
 621 300 621 300 635.5 285.5 c 128,-1,7
 650 271 650 271 650 250 c 128,-1,8
 650 229 650 229 635.5 214.5 c 128,-1,9
 621 200 621 200 600 200 c 2,10,-1
 350 200 l 2,11,12
 256 200 256 200 203 181 c 128,-1,13
 150 162 150 162 150 125 c 0,14,15
 150 105 150 105 162 91 c 0,16,17
 188 63 188 63 268 54 c 0,18,19
 303 50 303 50 350 50 c 2,20,-1
 598 50 l 2,21,22
 619 50 619 50 633.5 35.5 c 128,-1,23
 648 21 648 21 648 0 c 128,-1,24
 648 -21 648 -21 633.5 -35.5 c 128,-1,25
 619 -50 619 -50 598 -50 c 2,26,-1
 350 -50 l 2,27,28
 216 -50 216 -50 172 -83 c 0,29,30
 150 -99 150 -99 150 -125 c 0,31,32
 150 -162 150 -162 203 -181 c 128,-1,33
 256 -200 256 -200 350 -200 c 2,34,-1
 600 -200 l 2,35,36
 621 -200 621 -200 635.5 -214.5 c 128,-1,37
 650 -229 650 -229 650 -250 c 128,-1,38
 650 -271 650 -271 635.5 -285.5 c 128,-1,39
 621 -300 621 -300 600 -300 c 2,40,-1
 350 -300 l 2,41,42
 50 -300 50 -300 50 -125 c 0,43,44
 50 -51 50 -51 109 -6 c 0,45,46
 110 -5 110 -5 113 -3 c 128,-1,47
 116 -1 116 -1 117 0 c 1,0,1
EndSplineSet
Validated: 16385
EndChar

StartChar: k
Encoding: 107 107 58
Width: 500
GlyphClass: 2
Flags: W
HStem: -300 100<258.618 635.045> 530 20G<89.5 110.5>
VStem: 50 100<-91.3818 535.045>
LayerCount: 2
Fore
SplineSet
50 500 m 2,0,1
 50 521 50 521 64.5 535.5 c 128,-1,2
 79 550 79 550 100 550 c 128,-1,3
 121 550 121 550 135.5 535.5 c 128,-1,4
 150 521 150 521 150 500 c 2,5,-1
 150 0 l 2,6,7
 150 -82 150 -82 209 -141 c 128,-1,8
 268 -200 268 -200 350 -200 c 2,9,-1
 600 -200 l 2,10,11
 621 -200 621 -200 635.5 -214.5 c 128,-1,12
 650 -229 650 -229 650 -250 c 128,-1,13
 650 -271 650 -271 635.5 -285.5 c 128,-1,14
 621 -300 621 -300 600 -300 c 2,15,-1
 350 -300 l 2,16,17
 226 -300 226 -300 138 -212 c 128,-1,18
 50 -124 50 -124 50 0 c 2,19,-1
 50 500 l 2,0,1
EndSplineSet
Validated: 1
EndChar

StartChar: l
Encoding: 108 108 59
Width: 876
GlyphClass: 2
Flags: W
HStem: -300 100<258.611 439.942> -174 100<712.354 861.831> 200 100<258.611 441.389>
VStem: 50 100<-91.3893 91.3893> 550 100<-535.045 -235.86 -91.3967 91.3818> 926 100<-535.045 -239.158>
LayerCount: 2
Fore
SplineSet
788 -174 m 0,0,1
 729 -174 729 -174 689.5 -213.5 c 128,-1,2
 650 -253 650 -253 650 -312 c 2,3,-1
 650 -500 l 2,4,5
 650 -521 650 -521 635.5 -535.5 c 128,-1,6
 621 -550 621 -550 600 -550 c 128,-1,7
 579 -550 579 -550 564.5 -535.5 c 128,-1,8
 550 -521 550 -521 550 -500 c 2,9,-1
 550 -224 l 1,10,11
 465 -300 465 -300 350 -300 c 0,12,13
 226 -300 226 -300 138 -212 c 128,-1,14
 50 -124 50 -124 50 0 c 128,-1,15
 50 124 50 124 138 212 c 128,-1,16
 226 300 226 300 350 300 c 128,-1,17
 474 300 474 300 562 212 c 128,-1,18
 650 124 650 124 650 0 c 2,19,-1
 650 -118 l 1,20,21
 711 -74 711 -74 788 -74 c 0,22,23
 887 -74 887 -74 956.5 -143.5 c 128,-1,24
 1026 -213 1026 -213 1026 -312 c 2,25,-1
 1026 -500 l 2,26,27
 1026 -521 1026 -521 1011.5 -535.5 c 128,-1,28
 997 -550 997 -550 976 -550 c 128,-1,29
 955 -550 955 -550 940.5 -535.5 c 128,-1,30
 926 -521 926 -521 926 -500 c 2,31,-1
 926 -312 l 2,32,33
 926 -255 926 -255 885.5 -214.5 c 128,-1,34
 845 -174 845 -174 788 -174 c 0,0,1
550 0 m 128,-1,36
 550 82 550 82 491 141 c 128,-1,37
 432 200 432 200 350 200 c 128,-1,38
 268 200 268 200 209 141 c 128,-1,39
 150 82 150 82 150 0 c 128,-1,40
 150 -82 150 -82 209 -141 c 128,-1,41
 268 -200 268 -200 350 -200 c 128,-1,42
 432 -200 432 -200 491 -141 c 128,-1,35
 550 -82 550 -82 550 0 c 128,-1,36
EndSplineSet
Validated: 16385
EndChar

StartChar: m
Encoding: 109 109 60
Width: 876
GlyphClass: 2
Flags: W
HStem: -300 100<433.742 617.127> 74 100<13.3417 165.024> 200 100<434.125 617.127> 530 20G<-111.5 -90.5 264.5 285.5>
VStem: -150 100<239.158 534.53> 226 100<-91.9342 92.0585 235.2 534.53> 726 100<-91.3893 91.3893>
LayerCount: 2
Fore
SplineSet
87 174 m 0,0,1
 147 174 147 174 186.5 213 c 128,-1,2
 226 252 226 252 226 312 c 2,3,-1
 226 500 l 2,4,5
 226 520 226 520 240 535 c 128,-1,6
 254 550 254 550 275 550 c 128,-1,7
 296 550 296 550 311 535.5 c 128,-1,8
 326 521 326 521 326 500 c 2,9,-1
 326 224 l 1,10,11
 412 300 412 300 525 300 c 0,12,13
 650 300 650 300 738 212 c 128,-1,14
 826 124 826 124 826 0 c 128,-1,15
 826 -124 826 -124 738 -212 c 128,-1,16
 650 -300 650 -300 525 -300 c 0,17,18
 401 -300 401 -300 313.5 -212.5 c 128,-1,19
 226 -125 226 -125 226 0 c 2,20,-1
 226 118 l 1,21,22
 164 74 164 74 87 74 c 0,23,24
 -12 74 -12 74 -81 143.5 c 128,-1,25
 -150 213 -150 213 -150 312 c 2,26,-1
 -150 500 l 2,27,28
 -150 520 -150 520 -136 535 c 128,-1,29
 -122 550 -122 550 -101 550 c 128,-1,30
 -80 550 -80 550 -65 535.5 c 128,-1,31
 -50 521 -50 521 -50 500 c 2,32,-1
 -50 312 l 2,33,34
 -50 255 -50 255 -10 214.5 c 128,-1,35
 30 174 30 174 87 174 c 0,0,1
326 0 m 128,-1,37
 326 -83 326 -83 384.5 -141.5 c 128,-1,38
 443 -200 443 -200 525 -200 c 0,39,40
 608 -200 608 -200 667 -141 c 128,-1,41
 726 -82 726 -82 726 0 c 128,-1,42
 726 82 726 82 667 141 c 128,-1,43
 608 200 608 200 525 200 c 0,44,45
 443 200 443 200 384.5 141.5 c 128,-1,36
 326 83 326 83 326 0 c 128,-1,37
EndSplineSet
Validated: 16385
EndChar

StartChar: n
Encoding: 110 110 61
Width: 752
GlyphClass: 2
Flags: W
HStem: -49 100<111.844 268.521 488.836 638.818> 405 20G<-9.5 11 366.5 387>
VStem: -50 100<113.556 410.045> 326 100<-410.045 -110.86 109.469 410.045> 702 100<-410.045 -112.84>
CounterMasks: 1 38
LayerCount: 2
Fore
SplineSet
702 -187 m 2,0,1
 702 -131 702 -131 662.5 -90 c 128,-1,2
 623 -49 623 -49 565 -49 c 0,3,4
 506 -49 506 -49 466 -88.5 c 128,-1,5
 426 -128 426 -128 426 -187 c 2,6,-1
 426 -375 l 2,7,8
 426 -395 426 -395 411.5 -410 c 128,-1,9
 397 -425 397 -425 377 -425 c 0,10,11
 356 -425 356 -425 341 -410.5 c 128,-1,12
 326 -396 326 -396 326 -375 c 2,13,-1
 326 -7 l 1,14,15
 263 -51 263 -51 189 -51 c 0,16,17
 186 -51 186 -51 180.5 -50.5 c 128,-1,18
 175 -50 175 -50 172 -50 c 0,19,20
 101 -46 101 -46 45.5 -4 c 128,-1,21
 -10 38 -10 38 -33 99 c 1,22,23
 -50 141 -50 141 -50 187 c 2,24,-1
 -50 375 l 2,25,26
 -50 396 -50 396 -35 410.5 c 128,-1,27
 -20 425 -20 425 1 425 c 0,28,29
 21 425 21 425 35.5 410 c 128,-1,30
 50 395 50 395 50 375 c 2,31,-1
 50 187 l 2,32,33
 50 131 50 131 90.5 90 c 128,-1,34
 131 49 131 49 189 49 c 0,35,36
 249 49 249 49 287.5 88.5 c 128,-1,37
 326 128 326 128 326 187 c 2,38,-1
 326 375 l 2,39,40
 326 396 326 396 341 410.5 c 128,-1,41
 356 425 356 425 377 425 c 0,42,43
 397 425 397 425 411.5 410 c 128,-1,44
 426 395 426 395 426 375 c 2,45,-1
 426 7 l 1,46,47
 487 51 487 51 565 51 c 0,48,49
 568 51 568 51 573 50.5 c 128,-1,50
 578 50 578 50 581 50 c 0,51,52
 675 44 675 44 738.5 -24.5 c 128,-1,53
 802 -93 802 -93 802 -187 c 2,54,-1
 802 -375 l 2,55,56
 802 -395 802 -395 787.5 -410 c 128,-1,57
 773 -425 773 -425 753 -425 c 0,58,59
 732 -425 732 -425 717 -410.5 c 128,-1,60
 702 -396 702 -396 702 -375 c 2,61,-1
 702 -187 l 2,0,1
EndSplineSet
Validated: 16385
EndChar

StartChar: o
Encoding: 111 111 62
Width: 700
GlyphClass: 2
Flags: W
HStem: -300 100<223.083 349.62> -299 21G<588 608.5> 200 100<223.083 349.62>
VStem: 50 100<-112.053 112.053> 550 100<-285.591 -154.875 157.703 258>
AnchorPoint: "Anchor-1" 350 500 basechar 0
AnchorPoint: "Anchor-0" 350 -500 basechar 0
LayerCount: 2
Fore
SplineSet
650 249 m 2,0,-1
 650 244 l 1,1,2
 624 129 624 129 617 103 c 0,3,4
 603 54 603 54 587 10 c 1,5,-1
 584 0 l 1,6,7
 588 -16 588 -16 597.5 -42 c 128,-1,8
 607 -68 607 -68 609 -75 c 0,9,10
 617 -99 617 -99 623.5 -124 c 128,-1,11
 630 -149 630 -149 634.5 -168.5 c 128,-1,12
 639 -188 639 -188 642 -203 c 128,-1,13
 645 -218 645 -218 647 -229 c 128,-1,14
 649 -240 649 -240 649 -241 c 128,-1,15
 649 -242 649 -242 649.5 -244 c 128,-1,16
 650 -246 650 -246 650 -247 c 2,17,-1
 650 -250 l 2,18,19
 650 -273 650 -273 634 -286 c 128,-1,20
 618 -299 618 -299 599 -299 c 0,21,22
 577 -299 577 -299 563 -284 c 0,23,24
 553 -273 553 -273 551 -259 c 0,25,26
 551 -258 551 -258 549.5 -251.5 c 128,-1,27
 548 -245 548 -245 546 -233.5 c 128,-1,28
 544 -222 544 -222 540.5 -207.5 c 128,-1,29
 537 -193 537 -193 532.5 -173 c 128,-1,30
 528 -153 528 -153 522 -133 c 1,31,32
 424 -300 424 -300 287 -300 c 0,33,34
 210 -300 210 -300 154 -251.5 c 128,-1,35
 98 -203 98 -203 74 -137 c 128,-1,36
 50 -71 50 -71 50 0 c 128,-1,37
 50 71 50 71 74 137 c 128,-1,38
 98 203 98 203 154 251.5 c 128,-1,39
 210 300 210 300 287 300 c 0,40,41
 424 300 424 300 522 133 c 1,42,43
 550 237 550 237 550 258 c 1,44,-1
 551 260 l 1,45,46
 555 278 555 278 569 289 c 128,-1,47
 583 300 583 300 600 300 c 2,48,-1
 604 300 l 2,49,50
 605 300 605 300 608 300 c 1,51,-1
 610 299 l 1,52,53
 628 295 628 295 639 280.5 c 128,-1,54
 650 266 650 266 650 249 c 2,0,-1
476 0 m 1,55,56
 437 90 437 90 387.5 145 c 128,-1,57
 338 200 338 200 287 200 c 0,58,59
 228 200 228 200 189 142.5 c 128,-1,60
 150 85 150 85 150 0 c 128,-1,61
 150 -85 150 -85 189 -142.5 c 128,-1,62
 228 -200 228 -200 287 -200 c 0,63,64
 338 -200 338 -200 387.5 -145 c 128,-1,65
 437 -90 437 -90 476 0 c 1,55,56
EndSplineSet
Validated: 16385
EndChar

StartChar: p
Encoding: 112 112 63
Width: 700
GlyphClass: 2
Flags: W
HStem: -300 100<258.611 441.389> 200 100<258.7 441.389> 530 20G<89.5 110.5>
VStem: 50 100<-91.3818 91.3967 224 535.045> 550 100<-91.3893 91.3893>
LayerCount: 2
Fore
SplineSet
50 0 m 2,0,-1
 50 500 l 2,1,2
 50 521 50 521 64.5 535.5 c 128,-1,3
 79 550 79 550 100 550 c 128,-1,4
 121 550 121 550 135.5 535.5 c 128,-1,5
 150 521 150 521 150 500 c 2,6,-1
 150 224 l 1,7,8
 236 300 236 300 350 300 c 0,9,10
 474 300 474 300 562 212 c 128,-1,11
 650 124 650 124 650 0 c 128,-1,12
 650 -124 650 -124 562 -212 c 128,-1,13
 474 -300 474 -300 350 -300 c 128,-1,14
 226 -300 226 -300 138 -212 c 128,-1,15
 50 -124 50 -124 50 0 c 2,0,-1
150 0 m 128,-1,17
 150 -82 150 -82 209 -141 c 128,-1,18
 268 -200 268 -200 350 -200 c 128,-1,19
 432 -200 432 -200 491 -141 c 128,-1,20
 550 -82 550 -82 550 0 c 128,-1,21
 550 82 550 82 491 141 c 128,-1,22
 432 200 432 200 350 200 c 128,-1,23
 268 200 268 200 209 141 c 128,-1,16
 150 82 150 82 150 0 c 128,-1,17
EndSplineSet
Validated: 16385
EndChar

StartChar: r
Encoding: 114 114 65
Width: 700
GlyphClass: 2
Flags: W
HStem: -300 100<257.742 440.813> 200 100<257.742 441.127>
VStem: 50 100<-91.7202 91.7202> 550 100<-535.045 -223 -92.0585 91.3818>
LayerCount: 2
Fore
SplineSet
650 0 m 2,0,-1
 650 -500 l 2,1,2
 650 -521 650 -521 635 -535.5 c 128,-1,3
 620 -550 620 -550 599 -550 c 0,4,5
 579 -550 579 -550 564.5 -535 c 128,-1,6
 550 -520 550 -520 550 -500 c 2,7,-1
 550 -223 l 1,8,9
 463 -300 463 -300 349 -300 c 0,10,11
 225 -300 225 -300 137.5 -212 c 128,-1,12
 50 -124 50 -124 50 0 c 128,-1,13
 50 124 50 124 137.5 212 c 128,-1,14
 225 300 225 300 349 300 c 0,15,16
 474 300 474 300 562 212 c 128,-1,17
 650 124 650 124 650 0 c 2,0,-1
550 0 m 128,-1,19
 550 83 550 83 491 141.5 c 128,-1,20
 432 200 432 200 349 200 c 0,21,22
 267 200 267 200 208.5 141.5 c 128,-1,23
 150 83 150 83 150 0 c 128,-1,24
 150 -83 150 -83 208.5 -141.5 c 128,-1,25
 267 -200 267 -200 349 -200 c 0,26,27
 432 -200 432 -200 491 -141.5 c 128,-1,18
 550 -83 550 -83 550 0 c 128,-1,19
EndSplineSet
Validated: 16385
EndChar

StartChar: s
Encoding: 115 115 66
Width: 700
GlyphClass: 2
Flags: W
HStem: -300 21G<90.5 111.5 590.5 611.5> -300 21G<90.5 111.5 590.5 611.5> 200 100<259.362 442.258> 450 100<-247.561 -14.2339>
VStem: 50 100<-284.53 89.3578 224 384.842> 550 100<-284.53 91.9342>
LayerCount: 2
Fore
SplineSet
150 0 m 2,0,-1
 150 -250 l 2,1,2
 150 -270 150 -270 136 -285 c 128,-1,3
 122 -300 122 -300 101 -300 c 128,-1,4
 80 -300 80 -300 65 -285.5 c 128,-1,5
 50 -271 50 -271 50 -250 c 2,6,-1
 50 312 l 2,7,8
 50 369 50 369 10 409.5 c 128,-1,9
 -30 450 -30 450 -87 450 c 2,10,-1
 -213 450 l 2,11,12
 -234 450 -234 450 -248 465 c 128,-1,13
 -262 480 -262 480 -262 500 c 128,-1,14
 -262 520 -262 520 -248 535 c 128,-1,15
 -234 550 -234 550 -213 550 c 2,16,-1
 -87 550 l 2,17,18
 12 550 12 550 81 480.5 c 128,-1,19
 150 411 150 411 150 312 c 2,20,-1
 150 224 l 1,21,22
 236 300 236 300 351 300 c 0,23,24
 475 300 475 300 562.5 212.5 c 128,-1,25
 650 125 650 125 650 0 c 2,26,-1
 650 -250 l 2,27,28
 650 -270 650 -270 636 -285 c 128,-1,29
 622 -300 622 -300 601 -300 c 128,-1,30
 580 -300 580 -300 565 -285.5 c 128,-1,31
 550 -271 550 -271 550 -250 c 2,32,-1
 550 0 l 2,33,34
 550 83 550 83 491.5 141.5 c 128,-1,35
 433 200 433 200 351 200 c 0,36,37
 285 200 285 200 232.5 161.5 c 128,-1,38
 180 123 180 123 161 62 c 1,39,40
 150 40 150 40 150 0 c 2,0,-1
EndSplineSet
Validated: 16385
EndChar

StartChar: t
Encoding: 116 116 67
Width: 700
GlyphClass: 2
Flags: W
HStem: -300 21G<90.5 111.5 590.5 611.5> -300 21G<90.5 111.5 590.5 611.5> 200 100<259.362 442.258> 530 20G<90.5 111.5>
VStem: 50 100<-284.53 89.3578 224 534.53> 550 100<-284.53 91.9342>
LayerCount: 2
Fore
SplineSet
150 0 m 2,0,-1
 150 -250 l 2,1,2
 150 -270 150 -270 136 -285 c 128,-1,3
 122 -300 122 -300 101 -300 c 128,-1,4
 80 -300 80 -300 65 -285.5 c 128,-1,5
 50 -271 50 -271 50 -250 c 2,6,-1
 50 500 l 2,7,8
 50 521 50 521 65 535.5 c 128,-1,9
 80 550 80 550 101 550 c 128,-1,10
 122 550 122 550 136 535 c 128,-1,11
 150 520 150 520 150 500 c 2,12,-1
 150 224 l 1,13,14
 236 300 236 300 351 300 c 0,15,16
 475 300 475 300 562.5 212.5 c 128,-1,17
 650 125 650 125 650 0 c 2,18,-1
 650 -250 l 2,19,20
 650 -270 650 -270 636 -285 c 128,-1,21
 622 -300 622 -300 601 -300 c 128,-1,22
 580 -300 580 -300 565 -285.5 c 128,-1,23
 550 -271 550 -271 550 -250 c 2,24,-1
 550 0 l 2,25,26
 550 83 550 83 491.5 141.5 c 128,-1,27
 433 200 433 200 351 200 c 0,28,29
 285 200 285 200 232.5 161.5 c 128,-1,30
 180 123 180 123 161 62 c 1,31,32
 150 40 150 40 150 0 c 2,0,-1
EndSplineSet
Validated: 16385
EndChar

StartChar: u
Encoding: 117 117 68
Width: 700
GlyphClass: 2
Flags: W
HStem: -300 100<186.897 267.205 431.611 512.771> 200 100<186.897 267.407 431.813 512.771>
VStem: 50 100<-152.551 152.551> 299 101<-158.755 159.486> 550 100<-151.768 151.768>
AnchorPoint: "Anchor-1" 350 500 basechar 0
AnchorPoint: "Anchor-0" 350 -500 basechar 0
LayerCount: 2
Fore
SplineSet
349 -234 m 1,0,1
 303 -300 303 -300 225 -300 c 0,2,3
 50 -300 50 -300 50 0 c 128,-1,4
 50 300 50 300 225 300 c 0,5,6
 304 300 304 300 349 234 c 1,7,8
 395 300 395 300 475 300 c 0,9,10
 650 300 650 300 650 0 c 128,-1,11
 650 -300 650 -300 475 -300 c 0,12,13
 394 -300 394 -300 349 -234 c 1,0,1
299 0 m 1,14,15
 297 49 297 49 292 84 c 1,16,17
 285 151 285 151 270 175.5 c 128,-1,18
 255 200 255 200 225 200 c 0,19,20
 188 200 188 200 169 147 c 128,-1,21
 150 94 150 94 150 0 c 128,-1,22
 150 -94 150 -94 169 -147 c 128,-1,23
 188 -200 188 -200 225 -200 c 0,24,25
 255 -200 255 -200 270 -175 c 128,-1,26
 285 -150 285 -150 292 -83 c 1,27,28
 297 -49 297 -49 299 0 c 1,14,15
400 0 m 1,29,30
 402 -46 402 -46 407 -83 c 1,31,32
 414 -151 414 -151 429 -175.5 c 128,-1,33
 444 -200 444 -200 475 -200 c 0,34,35
 511 -200 511 -200 530.5 -147 c 128,-1,36
 550 -94 550 -94 550 0 c 128,-1,37
 550 94 550 94 530.5 147 c 128,-1,38
 511 200 511 200 475 200 c 0,39,40
 444 200 444 200 429 175.5 c 128,-1,41
 414 151 414 151 407 84 c 1,42,43
 402 50 402 50 400 0 c 1,29,30
EndSplineSet
Validated: 16385
EndChar

StartChar: w
Encoding: 119 119 70
Width: 752
GlyphClass: 2
Flags: W
HStem: -425 100<489.618 638.701> -49 100<109.534 265.067 489.031 638.701> 325 100<113.618 262.701>
VStem: -50 100<113.169 260.831> 326 100<-259.842 -112.18 112.18 259.842> 702 100<-260.831 -113.169>
CounterMasks: 1 1c
LayerCount: 2
Fore
SplineSet
-50 187 m 128,-1,1
 -50 286 -50 286 19.5 355.5 c 128,-1,2
 89 425 89 425 187 425 c 0,3,4
 286 425 286 425 356 355.5 c 128,-1,5
 426 286 426 286 426 187 c 2,6,-1
 426 7 l 1,7,8
 489 51 489 51 563 51 c 0,9,10
 662 51 662 51 732 -18.5 c 128,-1,11
 802 -88 802 -88 802 -187 c 128,-1,12
 802 -286 802 -286 732 -355.5 c 128,-1,13
 662 -425 662 -425 563 -425 c 0,14,15
 465 -425 465 -425 395.5 -355.5 c 128,-1,16
 326 -286 326 -286 326 -187 c 2,17,-1
 326 -7 l 1,18,19
 264 -51 264 -51 187 -51 c 0,20,21
 89 -51 89 -51 19.5 18.5 c 128,-1,0
 -50 88 -50 88 -50 187 c 128,-1,1
50 187 m 128,-1,23
 50 130 50 130 90 89.5 c 128,-1,24
 130 49 130 49 187 49 c 0,25,26
 245 49 245 49 285.5 89.5 c 128,-1,27
 326 130 326 130 326 187 c 128,-1,28
 326 244 326 244 285.5 284.5 c 128,-1,29
 245 325 245 325 187 325 c 0,30,31
 130 325 130 325 90 284.5 c 128,-1,22
 50 244 50 244 50 187 c 128,-1,23
702 -187 m 128,-1,33
 702 -130 702 -130 661.5 -89.5 c 128,-1,34
 621 -49 621 -49 563 -49 c 0,35,36
 506 -49 506 -49 466 -89.5 c 128,-1,37
 426 -130 426 -130 426 -187 c 128,-1,38
 426 -244 426 -244 466 -284.5 c 128,-1,39
 506 -325 506 -325 563 -325 c 0,40,41
 621 -325 621 -325 661.5 -284.5 c 128,-1,32
 702 -244 702 -244 702 -187 c 128,-1,33
EndSplineSet
Validated: 16385
EndChar

StartChar: x
Encoding: 120 120 71
Width: 700
GlyphClass: 2
Flags: W
HStem: -300 100<258.99 442.367> 280 20G<90.5 111.5 590.5 611.5> 280 20G<90.5 111.5 590.5 611.5>
VStem: 50 100<-91.3818 284.53> 550 100<-534.53 -224 -91.9679 284.53>
LayerCount: 2
Fore
SplineSet
550 -224 m 1,0,1
 469 -296 469 -296 365 -300 c 1,2,3
 351 -300 l 0,4,5
 226 -300 226 -300 138 -212 c 128,-1,6
 50 -124 50 -124 50 0 c 2,7,-1
 50 250 l 2,8,9
 50 271 50 271 65 285.5 c 128,-1,10
 80 300 80 300 101 300 c 128,-1,11
 122 300 122 300 136 285 c 128,-1,12
 150 270 150 270 150 250 c 2,13,-1
 150 0 l 2,14,15
 150 -82 150 -82 209 -141 c 128,-1,16
 268 -200 268 -200 351 -200 c 0,17,18
 420 -200 420 -200 470.5 -160.5 c 128,-1,19
 521 -121 521 -121 541 -62 c 1,20,21
 550 -31 550 -31 550 0 c 2,22,-1
 550 250 l 2,23,24
 550 271 550 271 565 285.5 c 128,-1,25
 580 300 580 300 601 300 c 128,-1,26
 622 300 622 300 636 285 c 128,-1,27
 650 270 650 270 650 250 c 2,28,-1
 650 -500 l 2,29,30
 650 -520 650 -520 636 -535 c 128,-1,31
 622 -550 622 -550 601 -550 c 128,-1,32
 580 -550 580 -550 565 -535.5 c 128,-1,33
 550 -521 550 -521 550 -500 c 2,34,-1
 550 -224 l 1,0,1
EndSplineSet
Validated: 16385
EndChar

StartChar: y
Encoding: 121 121 72
Width: 700
GlyphClass: 2
Flags: W
HStem: -550 100<714.852 948.53> -300 100<258.873 442.362> 200 100<258.873 442.258>
VStem: 50 100<-91.7202 91.7202> 550 100<-385.444 -224 -92.0585 91.3818>
LayerCount: 2
Fore
SplineSet
650 -312 m 2,0,1
 650 -368 650 -368 690.5 -409 c 128,-1,2
 731 -450 731 -450 789 -450 c 2,3,-1
 913 -450 l 2,4,5
 934 -450 934 -450 949 -464.5 c 128,-1,6
 964 -479 964 -479 964 -500 c 128,-1,7
 964 -521 964 -521 949 -535.5 c 128,-1,8
 934 -550 934 -550 913 -550 c 2,9,-1
 789 -550 l 2,10,11
 786 -550 786 -550 780.5 -549.5 c 128,-1,12
 775 -549 775 -549 772 -549 c 0,13,14
 701 -545 701 -545 645.5 -503 c 128,-1,15
 590 -461 590 -461 567 -400 c 1,16,17
 550 -358 550 -358 550 -312 c 2,18,-1
 550 -224 l 1,19,20
 466 -300 466 -300 351 -300 c 0,21,22
 226 -300 226 -300 138 -212 c 128,-1,23
 50 -124 50 -124 50 0 c 128,-1,24
 50 124 50 124 138 212 c 128,-1,25
 226 300 226 300 351 300 c 0,26,27
 475 300 475 300 562.5 212 c 128,-1,28
 650 124 650 124 650 0 c 2,29,-1
 650 -312 l 2,0,1
550 0 m 128,-1,31
 550 83 550 83 491.5 141.5 c 128,-1,32
 433 200 433 200 351 200 c 0,33,34
 268 200 268 200 209 141.5 c 128,-1,35
 150 83 150 83 150 0 c 128,-1,36
 150 -83 150 -83 209 -141.5 c 128,-1,37
 268 -200 268 -200 351 -200 c 0,38,39
 433 -200 433 -200 491.5 -141.5 c 128,-1,30
 550 -83 550 -83 550 0 c 128,-1,31
EndSplineSet
Validated: 16385
EndChar

StartChar: eng
Encoding: 331 331 85
Width: 700
GlyphClass: 2
Flags: W
HStem: -550 100<714.234 947.561> -300 100<257.742 439.27> 280 20G<88.5 109.5 588.5 609.5> 280 20G<88.5 109.5 588.5 609.5>
VStem: 50 100<-91.9342 284.53> 550 100<-384.842 -224 -89.3578 284.53>
LayerCount: 2
Fore
SplineSet
550 0 m 2,0,-1
 550 250 l 2,1,2
 550 270 550 270 564 285 c 128,-1,3
 578 300 578 300 599 300 c 128,-1,4
 620 300 620 300 635 285.5 c 128,-1,5
 650 271 650 271 650 250 c 2,6,-1
 650 -312 l 2,7,8
 650 -369 650 -369 690 -409.5 c 128,-1,9
 730 -450 730 -450 787 -450 c 2,10,-1
 913 -450 l 2,11,12
 934 -450 934 -450 948 -465 c 128,-1,13
 962 -480 962 -480 962 -500 c 128,-1,14
 962 -520 962 -520 948 -535 c 128,-1,15
 934 -550 934 -550 913 -550 c 2,16,-1
 787 -550 l 2,17,18
 688 -550 688 -550 619 -480.5 c 128,-1,19
 550 -411 550 -411 550 -312 c 2,20,-1
 550 -224 l 1,21,22
 465 -300 465 -300 349 -300 c 0,23,24
 225 -300 225 -300 137.5 -212.5 c 128,-1,25
 50 -125 50 -125 50 0 c 2,26,-1
 50 250 l 2,27,28
 50 270 50 270 64 285 c 128,-1,29
 78 300 78 300 99 300 c 128,-1,30
 120 300 120 300 135 285.5 c 128,-1,31
 150 271 150 271 150 250 c 2,32,-1
 150 0 l 2,33,34
 150 -83 150 -83 208.5 -141.5 c 128,-1,35
 267 -200 267 -200 349 -200 c 0,36,37
 415 -200 415 -200 467.5 -161.5 c 128,-1,38
 520 -123 520 -123 539 -62 c 1,39,40
 550 -40 550 -40 550 0 c 2,0,-1
EndSplineSet
Validated: 16385
EndChar

StartChar: uni0254
Encoding: 596 596 91
Width: 700
GlyphClass: 2
Flags: W
HStem: -300 100<258.611 441.389> 200 100<258.611 441.389>
VStem: 50 100<-91.3893 91.3893> 550 100<-91.3893 91.3893>
AnchorPoint: "Anchor-1" 350 500 basechar 0
AnchorPoint: "Anchor-0" 350 -500 basechar 0
LayerCount: 2
Fore
SplineSet
150 0 m 128,-1,1
 150 -82 150 -82 209 -141 c 128,-1,2
 268 -200 268 -200 350 -200 c 128,-1,3
 432 -200 432 -200 491 -141 c 128,-1,4
 550 -82 550 -82 550 0 c 128,-1,5
 550 82 550 82 491 141 c 128,-1,6
 432 200 432 200 350 200 c 128,-1,7
 268 200 268 200 209 141 c 128,-1,0
 150 82 150 82 150 0 c 128,-1,1
50 0 m 128,-1,9
 50 124 50 124 138 212 c 128,-1,10
 226 300 226 300 350 300 c 128,-1,11
 474 300 474 300 562 212 c 128,-1,12
 650 124 650 124 650 0 c 128,-1,13
 650 -124 650 -124 562 -212 c 128,-1,14
 474 -300 474 -300 350 -300 c 128,-1,15
 226 -300 226 -300 138 -212 c 128,-1,8
 50 -124 50 -124 50 0 c 128,-1,9
EndSplineSet
Validated: 16385
EndChar

StartChar: uni025B
Encoding: 603 603 93
Width: 700
GlyphClass: 2
Flags: W
HStem: -300 100<258.078 634.53> 200 100<256.318 634.53>
VStem: 50 100<-91.1504 90.6447>
AnchorPoint: "Anchor-1" 350 500 basechar 0
AnchorPoint: "Anchor-0" 350 -500 basechar 0
LayerCount: 2
Fore
SplineSet
150 0 m 128,-1,1
 150 -79 150 -79 204.5 -137.5 c 128,-1,2
 259 -196 259 -196 338 -200 c 1,3,-1
 599 -200 l 2,4,5
 620 -200 620 -200 635 -214.5 c 128,-1,6
 650 -229 650 -229 650 -250 c 128,-1,7
 650 -271 650 -271 635 -285.5 c 128,-1,8
 620 -300 620 -300 599 -300 c 2,9,-1
 333 -300 l 1,10,11
 243 -296 243 -296 173 -242.5 c 128,-1,12
 103 -189 103 -189 71 -111 c 0,13,14
 50 -60 50 -60 50 0 c 0,15,16
 50 147 50 147 169 239 c 0,17,18
 248 300 248 300 349 300 c 2,19,-1
 599 300 l 2,20,21
 620 300 620 300 635 285.5 c 128,-1,22
 650 271 650 271 650 250 c 128,-1,23
 650 229 650 229 635 214.5 c 128,-1,24
 620 200 620 200 599 200 c 2,25,-1
 338 200 l 1,26,27
 258 196 258 196 204 137.5 c 128,-1,0
 150 79 150 79 150 0 c 128,-1,1
EndSplineSet
Validated: 16385
EndChar

StartChar: afii57929
Encoding: 700 700 95
Width: 200
GlyphClass: 2
Flags: W
HStem: 405 20G<90.5 111>
VStem: 50 100<-410.045 410.045>
LayerCount: 2
Fore
SplineSet
101 -425 m 0,0,1
 80 -425 80 -425 65 -410.5 c 128,-1,2
 50 -396 50 -396 50 -375 c 2,3,-1
 50 375 l 2,4,5
 50 396 50 396 65 410.5 c 128,-1,6
 80 425 80 425 101 425 c 0,7,8
 121 425 121 425 135.5 410 c 128,-1,9
 150 395 150 395 150 375 c 2,10,-1
 150 -375 l 2,11,12
 150 -395 150 -395 135.5 -410 c 128,-1,13
 121 -425 121 -425 101 -425 c 0,0,1
EndSplineSet
Validated: 1
EndChar

StartChar: acutecomb
Encoding: 769 769 99
Width: 0
GlyphClass: 4
Flags: W
HStem: 379.085 241.83
VStem: 300.085 241.83
AnchorPoint: "Anchor-1" 350 500 mark 0
LayerCount: 2
Fore
SplineSet
314.93359375 464.64453125 m 2,0,1
 300.084960938 449.795898438 300.084960938 449.795898438 300.084960938 429.2890625 c 128,-1,2
 300.084960938 408.783203125 300.084960938 408.783203125 314.93359375 393.93359375 c 128,-1,3
 329.783203125 379.084960938 329.783203125 379.084960938 350.2890625 379.084960938 c 128,-1,4
 370.795898438 379.084960938 370.795898438 379.084960938 385.64453125 393.93359375 c 2,5,-1
 527.06640625 535.35546875 l 2,6,7
 541.915039062 550.204101562 541.915039062 550.204101562 541.915039062 570.7109375 c 128,-1,8
 541.915039062 591.216796875 541.915039062 591.216796875 527.06640625 606.06640625 c 128,-1,9
 512.216796875 620.915039062 512.216796875 620.915039062 491.7109375 620.915039062 c 128,-1,10
 471.204101562 620.915039062 471.204101562 620.915039062 456.35546875 606.06640625 c 2,11,-1
 314.93359375 464.64453125 l 2,0,1
EndSplineSet
EndChar

StartChar: uni0304
Encoding: 772 772 100
Width: 0
GlyphClass: 4
Flags: W
HStem: 450 100<64.9547 635.045>
AnchorPoint: "Anchor-1" 350 500 mark 0
LayerCount: 2
Fore
SplineSet
600 550 m 2,0,1
 621 550 621 550 635.5 535.5 c 128,-1,2
 650 521 650 521 650 500 c 128,-1,3
 650 479 650 479 635.5 464.5 c 128,-1,4
 621 450 621 450 600 450 c 2,5,-1
 100 450 l 2,6,7
 79 450 79 450 64.5 464.5 c 128,-1,8
 50 479 50 479 50 500 c 128,-1,9
 50 521 50 521 64.5 535.5 c 128,-1,10
 79 550 79 550 100 550 c 2,11,-1
 600 550 l 2,0,1
EndSplineSet
Validated: 1
EndChar

StartChar: uni0305
Encoding: 773 773 101
Width: 0
GlyphClass: 4
Flags: W
HStem: 450 100<64.9547 1335.05>
AnchorPoint: "Anchor-1" 350 500 mark 0
LayerCount: 2
Fore
SplineSet
1300 550 m 2,0,1
 1321 550 1321 550 1335.5 535.5 c 128,-1,2
 1350 521 1350 521 1350 500 c 128,-1,3
 1350 479 1350 479 1335.5 464.5 c 128,-1,4
 1321 450 1321 450 1300 450 c 2,5,-1
 100 450 l 2,6,7
 79 450 79 450 64.5 464.5 c 128,-1,8
 50 479 50 479 50 500 c 128,-1,9
 50 521 50 521 64.5 535.5 c 128,-1,10
 79 550 79 550 100 550 c 2,11,-1
 1300 550 l 2,0,1
EndSplineSet
Validated: 1
EndChar

StartChar: uni035E
Encoding: 862 862 104
Width: 0
GlyphClass: 4
Flags: W
HStem: 450 100<64.9547 1335.05>
AnchorPoint: "Anchor-1" 350 500 mark 0
LayerCount: 2
Fore
SplineSet
1300 550 m 2,0,1
 1321 550 1321 550 1335.5 535.5 c 128,-1,2
 1350 521 1350 521 1350 500 c 128,-1,3
 1350 479 1350 479 1335.5 464.5 c 128,-1,4
 1321 450 1321 450 1300 450 c 2,5,-1
 100 450 l 2,6,7
 79 450 79 450 64.5 464.5 c 128,-1,8
 50 479 50 479 50 500 c 128,-1,9
 50 521 50 521 64.5 535.5 c 128,-1,10
 79 550 79 550 100 550 c 2,11,-1
 1300 550 l 2,0,1
EndSplineSet
Validated: 1
EndChar

StartChar: gravecomb
Encoding: 768 768 128
Width: 0
Flags: W
HStem: 379.085 241.83
VStem: 158.085 241.83
AnchorPoint: "Anchor-1" 350 500 mark 0
LayerCount: 2
Fore
SplineSet
385.06640625 464.64453125 m 2,0,1
 399.999023438 449.711914062 399.999023438 449.711914062 399.915039062 429.2890625 c 128,-1,2
 400 409 400 409 385.06640625 393.93359375 c 128,-1,3
 370 379 370 379 349.7109375 379.084960938 c 128,-1,4
 329.288085938 379.000976562 329.288085938 379.000976562 314.35546875 393.93359375 c 2,5,-1
 172.93359375 535.35546875 l 2,6,7
 158 550 158 550 158.084960938 570.7109375 c 0,8,9
 158 591 158 591 172.93359375 606.06640625 c 128,-1,10
 188 621 188 621 208.2890625 620.915039062 c 128,-1,11
 228.711914062 620.999023438 228.711914062 620.999023438 243.64453125 606.06640625 c 2,12,-1
 385.06640625 464.64453125 l 2,0,1
EndSplineSet
EndChar

